<svg width="20" height="20" viewBox="0 0 20 20" fill="none" xmlns="http://www.w3.org/2000/svg">
<path d="M2.59998 4.9843C2.59874 3.66719 3.66612 2.5988 4.98324 2.5988H15.019C16.3354 2.5988 17.4025 3.66615 17.4022 4.9826L17.3999 15.022C17.3996 16.338 16.3327 17.4047 15.0167 17.4047H4.99269C3.67733 17.4047 2.61067 16.3391 2.60943 15.0237L2.59998 4.9843Z" stroke="#404553" stroke-width="1.25849"/>
<path d="M5.64991 5.41625C5.64987 5.40625 5.65796 5.39814 5.66796 5.39814H8.18204C8.19202 5.39814 8.2001 5.40623 8.20009 5.4162L8.19767 8.62894C8.19766 8.6389 8.18958 8.64698 8.17962 8.64698H5.67805C5.6681 8.64698 5.66003 8.63893 5.65999 8.62898L5.64991 5.41625Z" fill="#FEEE00" stroke="#404553" stroke-width="0.968066"/>
<path d="M5.64991 11.0388C5.64987 11.0288 5.65796 11.0207 5.66796 11.0207H8.18204C8.19202 11.0207 8.2001 11.0288 8.20009 11.0388L8.19767 14.2515C8.19766 14.2615 8.18958 14.2695 8.17962 14.2695H5.67805C5.6681 14.2695 5.66003 14.2615 5.65999 14.2515L5.64991 11.0388Z" fill="#FEEE00" stroke="#404553" stroke-width="0.968066"/>
<mask id="path-4-inside-1_3553_16698" fill="white">
<path fill-rule="evenodd" clip-rule="evenodd" d="M9.38402 5.31553C9.38032 5.09463 9.55837 4.91357 9.7793 4.91357L14.6082 4.91357C14.8272 4.91357 15.0044 5.09154 15.0035 5.3105C15.0027 5.52822 14.8259 5.70424 14.6082 5.70424H9.7793C9.56354 5.70424 9.38763 5.53126 9.38402 5.31553Z"/>
</mask>
<path d="M9.7793 6.84971H14.6082V2.97744H9.7793V6.84971ZM14.6082 3.76811H9.7793V7.64038H14.6082V3.76811ZM9.7793 3.76811C10.6202 3.76811 11.3058 4.44233 11.3199 5.28311L7.44816 5.34795C7.46947 6.62018 8.50688 7.64038 9.7793 7.64038V3.76811ZM13.0674 5.30271C13.0708 4.45418 13.7597 3.76811 14.6082 3.76811V7.64038C15.8922 7.64038 16.9345 6.60225 16.9396 5.3183L13.0674 5.30271ZM14.6082 6.84971C13.7548 6.84971 13.064 6.15608 13.0674 5.30271L16.9396 5.3183C16.9448 4.02701 15.8995 2.97744 14.6082 2.97744V6.84971ZM9.7793 2.97744C8.47639 2.97744 7.42634 4.04523 7.44816 5.34795L11.3199 5.28311C11.3343 6.14404 10.6403 6.84971 9.7793 6.84971V2.97744Z" fill="#404553" mask="url(#path-4-inside-1_3553_16698)"/>
<mask id="path-6-inside-2_3553_16698" fill="white">
<path fill-rule="evenodd" clip-rule="evenodd" d="M9.38402 10.9381C9.38032 10.7172 9.55837 10.5361 9.7793 10.5361L14.6082 10.5361C14.8272 10.5361 15.0044 10.7141 15.0035 10.9331C15.0027 11.1508 14.8259 11.3268 14.6082 11.3268H9.7793C9.56354 11.3268 9.38763 11.1538 9.38402 10.9381Z"/>
</mask>
<path d="M9.7793 12.4723H14.6082V8.6H9.7793V12.4723ZM14.6082 9.39067H9.7793V13.2629H14.6082V9.39067ZM9.7793 9.39067C10.6202 9.39067 11.3058 10.0649 11.3199 10.9057L7.44816 10.9705C7.46947 12.2427 8.50688 13.2629 9.7793 13.2629V9.39067ZM13.0674 10.9253C13.0708 10.0767 13.7597 9.39067 14.6082 9.39067V13.2629C15.8922 13.2629 16.9345 12.2248 16.9396 10.9409L13.0674 10.9253ZM14.6082 12.4723C13.7548 12.4723 13.064 11.7786 13.0674 10.9253L16.9396 10.9409C16.9448 9.64956 15.8995 8.6 14.6082 8.6V12.4723ZM9.7793 8.6C8.47639 8.6 7.42634 9.66778 7.44816 10.9705L11.3199 10.9057C11.3343 11.7666 10.6403 12.4723 9.7793 12.4723V8.6Z" fill="#404553" mask="url(#path-6-inside-2_3553_16698)"/>
</svg>
