<svg width="16" height="17" viewBox="0 0 16 17" fill="none" xmlns="http://www.w3.org/2000/svg">
<path fill-rule="evenodd" clip-rule="evenodd" d="M14.9411 3.33489C14.8793 3.2751 14.8001 3.24504 14.7038 3.24504H11.5139L10.7913 1.57693C10.6881 1.33047 10.5022 1.12068 10.234 0.947517C9.96548 0.774393 9.6935 0.687866 9.41831 0.687866H6.11486C5.83966 0.687866 5.56776 0.774393 5.29936 0.947517C5.03093 1.12068 4.84512 1.33043 4.74185 1.57693L4.01925 3.24504H0.829443C0.733011 3.24504 0.653971 3.2751 0.591998 3.33489C0.530205 3.39483 0.499146 3.47145 0.499146 3.56466V4.20405C0.499146 4.29726 0.53006 4.37388 0.591998 4.43371C0.653971 4.49361 0.733156 4.52356 0.829443 4.52356H1.82037V14.0335C1.82037 14.5864 1.9821 15.0574 2.30553 15.4469C2.62903 15.8367 3.01787 16.0314 3.47211 16.0314H12.061C12.5154 16.0314 12.9042 15.83 13.2276 15.4272C13.5511 15.0241 13.7127 14.5464 13.7127 13.9936V4.52356H14.7038C14.8 4.52356 14.8793 4.49361 14.9411 4.43371C15.0029 4.37392 15.034 4.29726 15.034 4.20405V3.56466C15.0341 3.47145 15.0029 3.39483 14.9411 3.33489ZM5.96007 2.07614C6.00819 2.01624 6.06673 1.97951 6.13554 1.96628H9.40793C9.47674 1.97961 9.53538 2.01631 9.58344 2.07614L10.0791 3.2449H5.45423L5.96007 2.07614ZM12.3192 14.3982C12.3674 14.2751 12.3915 14.1402 12.3915 13.9937H12.3914V4.52356H3.14182V13.9937C3.14182 14.14 3.1659 14.2751 3.21402 14.3982C3.26222 14.5213 3.31215 14.6112 3.36382 14.6678C3.41556 14.7246 3.4515 14.7528 3.47215 14.7528H12.061C12.0818 14.7528 12.1177 14.7246 12.1694 14.6678C12.2209 14.6112 12.2709 14.5213 12.3192 14.3982Z" fill="#404553"/>
<path d="M14.9411 3.33489L15.0456 3.22725L15.0454 3.22704L14.9411 3.33489ZM11.5139 3.24504L11.3762 3.30467L11.4154 3.39504H11.5139V3.24504ZM10.7913 1.57693L10.6529 1.63486L10.6536 1.63655L10.7913 1.57693ZM10.234 0.947517L10.3153 0.821492L10.3153 0.82145L10.234 0.947517ZM5.29936 0.947517L5.21806 0.821465L5.21805 0.821467L5.29936 0.947517ZM4.74185 1.57693L4.8795 1.63656L4.8802 1.63489L4.74185 1.57693ZM4.01925 3.24504V3.39504H4.11774L4.15689 3.30467L4.01925 3.24504ZM0.591998 3.33489L0.487845 3.22695L0.487562 3.22722L0.591998 3.33489ZM0.591998 4.43371L0.696244 4.32586L0.696213 4.32583L0.591998 4.43371ZM1.82037 4.52356H1.97037V4.37356H1.82037V4.52356ZM2.30553 15.4469L2.42095 15.3511L2.42093 15.3511L2.30553 15.4469ZM13.2276 15.4272L13.3446 15.5211L13.3446 15.521L13.2276 15.4272ZM13.7127 4.52356V4.37356H13.5627V4.52356H13.7127ZM14.9411 4.43371L14.8368 4.32595L14.8367 4.32598L14.9411 4.43371ZM15.034 3.56466L14.884 3.56455V3.56466H15.034ZM6.13554 1.96628V1.81628H6.12125L6.10723 1.81898L6.13554 1.96628ZM5.96007 2.07614L5.84313 1.9822L5.83045 1.99798L5.82241 2.01656L5.96007 2.07614ZM9.40793 1.96628L9.43646 1.81902L9.42233 1.81628H9.40793V1.96628ZM9.58344 2.07614L9.72153 2.01758L9.71341 1.99843L9.70039 1.98221L9.58344 2.07614ZM10.0791 3.2449V3.3949H10.3057L10.2172 3.18634L10.0791 3.2449ZM5.45423 3.2449L5.31657 3.18532L5.22586 3.3949H5.45423V3.2449ZM12.3915 13.9937H12.5415V13.8437H12.3915V13.9937ZM12.3192 14.3982L12.1795 14.3435L12.1795 14.3435L12.3192 14.3982ZM12.3914 13.9937H12.2414V14.1437H12.3914V13.9937ZM12.3914 4.52356H12.5414V4.37356H12.3914V4.52356ZM3.14182 4.52356V4.37356H2.99182V4.52356H3.14182ZM3.21402 14.3982L3.07432 14.4528L3.07435 14.4529L3.21402 14.3982ZM3.36382 14.6678L3.47467 14.5668L3.47462 14.5667L3.36382 14.6678ZM12.1694 14.6678L12.2803 14.7689L12.2804 14.7688L12.1694 14.6678ZM14.7038 3.39504C14.7661 3.39504 14.8063 3.4132 14.8369 3.44275L15.0454 3.22704C14.9522 3.137 14.8341 3.09504 14.7038 3.09504V3.39504ZM11.5139 3.39504H14.7038V3.09504H11.5139V3.39504ZM10.6536 1.63655L11.3762 3.30467L11.6515 3.18542L10.9289 1.5173L10.6536 1.63655ZM10.1526 1.07354C10.4005 1.23356 10.5636 1.42144 10.6529 1.63486L10.9296 1.51899C10.8126 1.23949 10.6039 1.00779 10.3153 0.821492L10.1526 1.07354ZM9.41831 0.837866C9.66029 0.837866 9.90446 0.91353 10.1527 1.07358L10.3153 0.82145C10.0265 0.635256 9.72671 0.537866 9.41831 0.537866V0.837866ZM6.11486 0.837866H9.41831V0.537866H6.11486V0.837866ZM5.38067 1.07357C5.62879 0.913527 5.87288 0.837866 6.11486 0.837866V0.537866C5.80645 0.537866 5.50673 0.635259 5.21806 0.821465L5.38067 1.07357ZM4.8802 1.63489C4.96963 1.42142 5.13262 1.23358 5.38068 1.07357L5.21805 0.821467C4.92924 1.00777 4.72061 1.23945 4.6035 1.51897L4.8802 1.63489ZM4.15689 3.30467L4.87949 1.63655L4.60421 1.5173L3.88161 3.18542L4.15689 3.30467ZM0.829443 3.39504H4.01925V3.09504H0.829443V3.39504ZM0.69615 3.44284C0.7269 3.41317 0.767082 3.39504 0.829443 3.39504V3.09504C0.698941 3.09504 0.581043 3.13703 0.487846 3.22695L0.69615 3.44284ZM0.649146 3.56466C0.649146 3.50849 0.666216 3.47188 0.696433 3.44257L0.487562 3.22722C0.394193 3.31778 0.349146 3.43442 0.349146 3.56466H0.649146ZM0.649146 4.20405V3.56466H0.349146V4.20405H0.649146ZM0.696213 4.32583C0.666188 4.29682 0.649146 4.26042 0.649146 4.20405H0.349146C0.349146 4.3341 0.393932 4.45094 0.487783 4.5416L0.696213 4.32583ZM0.829443 4.37356C0.767072 4.37356 0.726859 4.35545 0.696244 4.32586L0.487751 4.54157C0.581084 4.63178 0.699241 4.67356 0.829443 4.67356V4.37356ZM1.82037 4.37356H0.829443V4.67356H1.82037V4.37356ZM1.97037 14.0335V4.52356H1.67037V14.0335H1.97037ZM2.42093 15.3511C2.12197 14.9911 1.97037 14.5548 1.97037 14.0335H1.67037C1.67037 14.618 1.84224 15.1238 2.19013 15.5428L2.42093 15.3511ZM3.47211 15.8814C3.06794 15.8814 2.71963 15.711 2.42095 15.3511L2.19011 15.5427C2.53844 15.9624 2.9678 16.1814 3.47211 16.1814V15.8814ZM12.061 15.8814H3.47211V16.1814H12.061V15.8814ZM13.1107 15.3332C12.8113 15.7061 12.4633 15.8814 12.061 15.8814V16.1814C12.5674 16.1814 12.9971 15.9538 13.3446 15.5211L13.1107 15.3332ZM13.5627 13.9936C13.5627 14.5148 13.4112 14.9588 13.1106 15.3333L13.3446 15.521C13.691 15.0894 13.8627 14.5779 13.8627 13.9936H13.5627ZM13.5627 4.52356V13.9936H13.8627V4.52356H13.5627ZM14.7038 4.37356H13.7127V4.67356H14.7038V4.37356ZM14.8367 4.32598C14.8063 4.35542 14.7662 4.37356 14.7038 4.37356V4.67356C14.8339 4.67356 14.9522 4.6318 15.0455 4.54144L14.8367 4.32598ZM14.884 4.20405C14.884 4.26015 14.8669 4.29676 14.8368 4.32595L15.0454 4.54148C15.1388 4.45107 15.184 4.33437 15.184 4.20405H14.884ZM14.884 3.56466V4.20405H15.184V3.56466H14.884ZM14.8367 3.44254C14.867 3.47197 14.8841 3.50863 14.884 3.56455L15.184 3.56478C15.1841 3.43428 15.1388 3.31769 15.0456 3.22725L14.8367 3.44254ZM6.10723 1.81898C5.99987 1.83961 5.91112 1.89758 5.84313 1.9822L6.077 2.17009C6.10527 2.13491 6.1336 2.1194 6.16385 2.11358L6.10723 1.81898ZM9.40793 1.81628H6.13554V2.11628H9.40793V1.81628ZM9.70039 1.98221C9.63235 1.89751 9.5435 1.83976 9.43646 1.81902L9.3794 2.11354C9.40997 2.11946 9.43841 2.13512 9.46649 2.17007L9.70039 1.98221ZM10.2172 3.18634L9.72153 2.01758L9.44534 2.13471L9.94102 3.30347L10.2172 3.18634ZM5.45423 3.3949H10.0791V3.0949H5.45423V3.3949ZM5.82241 2.01656L5.31657 3.18532L5.59189 3.30448L6.09773 2.13572L5.82241 2.01656ZM12.2415 13.9937C12.2415 14.1236 12.2202 14.2397 12.1795 14.3435L12.4588 14.453C12.5147 14.3105 12.5415 14.1568 12.5415 13.9937H12.2415ZM12.3914 14.1437H12.3915V13.8437H12.3914V14.1437ZM12.2414 4.52356V13.9937H12.5414V4.52356H12.2414ZM3.14182 4.67356H12.3914V4.37356H3.14182V4.67356ZM3.29182 13.9937V4.52356H2.99182V13.9937H3.29182ZM3.35373 14.3436C3.31311 14.2397 3.29182 14.1234 3.29182 13.9937H2.99182C2.99182 14.1567 3.01869 14.3105 3.07432 14.4528L3.35373 14.3436ZM3.47462 14.5667C3.44121 14.5301 3.39935 14.4601 3.3537 14.3435L3.07435 14.4529C3.1251 14.5825 3.1831 14.6923 3.25303 14.769L3.47462 14.5667ZM3.47215 14.6028C3.48643 14.6028 3.49777 14.6052 3.5052 14.6073C3.51267 14.6094 3.51793 14.6118 3.52067 14.6132C3.52571 14.6157 3.52643 14.6169 3.52218 14.6135C3.51837 14.6105 3.51239 14.6054 3.50402 14.5973C3.49577 14.5893 3.48602 14.5792 3.47467 14.5668L3.25298 14.7689C3.28125 14.7999 3.30959 14.8281 3.33711 14.8496C3.3509 14.8604 3.36771 14.8722 3.38691 14.8817C3.40476 14.8906 3.43472 14.9028 3.47215 14.9028V14.6028ZM12.061 14.6028H3.47215V14.9028H12.061V14.6028ZM12.0586 14.5668C12.0472 14.5792 12.0375 14.5893 12.0292 14.5973C12.0209 14.6054 12.0149 14.6106 12.0111 14.6135C12.0069 14.6168 12.0076 14.6157 12.0127 14.6132C12.0155 14.6118 12.0207 14.6094 12.0282 14.6073C12.0356 14.6051 12.0469 14.6028 12.061 14.6028V14.9028C12.0984 14.9028 12.1283 14.8907 12.1463 14.8818C12.1655 14.8722 12.1824 14.8605 12.1962 14.8496C12.2237 14.8281 12.2521 14.7999 12.2803 14.7689L12.0586 14.5668ZM12.1795 14.3435C12.1339 14.46 12.0919 14.5302 12.0585 14.5669L12.2804 14.7688C12.35 14.6923 12.408 14.5826 12.4588 14.4529L12.1795 14.3435Z" fill="white"/>
<path d="M4.79355 12.8349H5.45419C5.55062 12.8349 5.62984 12.805 5.69163 12.7451C5.75342 12.685 5.78448 12.6086 5.78448 12.5152V6.76123C5.78448 6.66805 5.75342 6.59143 5.69163 6.53146C5.62966 6.47166 5.55065 6.44171 5.45419 6.44171H4.79355C4.69712 6.44171 4.61805 6.47163 4.55611 6.53146C4.49424 6.59143 4.46326 6.66805 4.46326 6.76123V12.5152C4.46326 12.6086 4.49414 12.685 4.55611 12.7451C4.61805 12.805 4.69712 12.8349 4.79355 12.8349Z" fill="#404553" stroke="white" stroke-width="0.3"/>
<path d="M7.43625 12.8349H8.09689C8.19328 12.8349 8.27247 12.805 8.33422 12.7451C8.39634 12.685 8.42711 12.6086 8.42711 12.5152V6.76123C8.42711 6.66805 8.39631 6.59143 8.33422 6.53146C8.27247 6.47166 8.19328 6.44171 8.09689 6.44171H7.43625C7.33993 6.44171 7.26075 6.47163 7.19881 6.53146C7.13684 6.59143 7.10596 6.66805 7.10596 6.76123V12.5152C7.10596 12.6086 7.13684 12.685 7.19881 12.7451C7.26071 12.805 7.33993 12.8349 7.43625 12.8349Z" fill="#404553" stroke="white" stroke-width="0.3"/>
<path d="M10.079 12.8349H10.7396C10.8361 12.8349 10.9152 12.805 10.9771 12.7451C11.039 12.685 11.0697 12.6086 11.0697 12.5152V6.76123C11.0697 6.66805 11.0389 6.59143 10.9771 6.53146C10.9152 6.47166 10.8361 6.44171 10.7396 6.44171H10.079C9.98249 6.44171 9.90356 6.47163 9.84144 6.53146C9.77957 6.59143 9.74866 6.66805 9.74866 6.76123V12.5152C9.74866 12.6086 9.77957 12.685 9.84144 12.7451C9.90356 12.805 9.98249 12.8349 10.079 12.8349Z" fill="#404553" stroke="white" stroke-width="0.3"/>
</svg>
